<!-- Generated by scripts/generate-readme-overview-art.mjs -->
<svg xmlns="http://www.w3.org/2000/svg" width="1200" height="675" viewBox="0 0 1200 675" role="img" aria-labelledby="p19pek9x-title p19pek9x-desc">
  <title id="p19pek9x-title">GPT Docs API project overview</title>
  <desc id="p19pek9x-desc">Designer-style overview artwork for garethpaul/gpt-docs-api showing purpose, runtime, verification, and project surfaces.</desc>
  <defs>
    <linearGradient id="p19pek9x-bg" x1="0" y1="0" x2="1" y2="1">
      <stop offset="0%" stop-color="#efe7fd"/>
      <stop offset="48%" stop-color="#f8fafc"/>
      <stop offset="100%" stop-color="#dcf5f9"/>
    </linearGradient>
    <linearGradient id="p19pek9x-stage" x1="0" y1="0" x2="1" y2="1">
      <stop offset="0%" stop-color="#20123a"/>
      <stop offset="58%" stop-color="#3a1d6c"/>
      <stop offset="100%" stop-color="#1a365c"/>
    </linearGradient>
    <linearGradient id="p19pek9x-accent" x1="0" y1="0" x2="1" y2="1">
      <stop offset="0%" stop-color="#7c3aed"/>
      <stop offset="52%" stop-color="#06b6d4"/>
      <stop offset="100%" stop-color="#f97316"/>
    </linearGradient>
    <linearGradient id="p19pek9x-soft" x1="0" y1="0" x2="1" y2="1">
      <stop offset="0%" stop-color="#e0d0fb"/>
      <stop offset="100%" stop-color="#fee0cc"/>
    </linearGradient>
    <filter id="p19pek9x-shadow" x="-20%" y="-20%" width="140%" height="150%">
      <feDropShadow dx="0" dy="18" stdDeviation="18" flood-color="#0f172a" flood-opacity="0.14"/>
    </filter>
    <filter id="p19pek9x-miniShadow" x="-20%" y="-20%" width="140%" height="150%">
      <feDropShadow dx="0" dy="8" stdDeviation="10" flood-color="#0f172a" flood-opacity="0.12"/>
    </filter>
    <pattern id="p19pek9x-grid" width="24" height="24" patternUnits="userSpaceOnUse">
      <path d="M24 0H0v24" fill="none" stroke="#94a3b8" stroke-opacity="0.16" stroke-width="1"/>
    </pattern>
    <style>
      .label { font: 700 13px ui-sans-serif, system-ui, -apple-system, BlinkMacSystemFont, "Segoe UI", sans-serif; letter-spacing: 0; text-transform: uppercase; }
      .body { font-family: ui-sans-serif, system-ui, -apple-system, BlinkMacSystemFont, "Segoe UI", sans-serif; letter-spacing: 0; }
    </style>
  </defs>

  <rect width="1200" height="675" fill="url(#p19pek9x-bg)"/>
  <rect width="1200" height="675" fill="url(#p19pek9x-grid)" opacity="0.65"/>
  <circle cx="139" cy="618" r="166" fill="#7c3aed" opacity="0.10"/>
  <circle cx="979" cy="104" r="192" fill="#06b6d4" opacity="0.12"/>
  <path d="M66 560 C214 512 278 642 430 584 C576 528 676 408 838 462 C966 504 1034 426 1134 356" fill="none" stroke="#f97316" stroke-width="2" stroke-opacity="0.18"/>

  <rect x="48" y="38" width="1104" height="599" rx="34" fill="#ffffff" opacity="0.94" filter="url(#p19pek9x-shadow)"/>
  <rect x="49" y="39" width="1102" height="597" rx="33" fill="none" stroke="#e2e8f0" stroke-width="1"/>

  <g class="body">
    <rect x="84" y="76" width="48" height="48" rx="14" fill="url(#p19pek9x-accent)"/>
    <path d="M22 2l5 14 14 5-14 5-5 14-5-14-14-5 14-5z" transform="translate(98 90)" fill="#ffffff"/><path d="M38 4l2 6 6 2-6 2-2 6-2-6-6-2 6-2z" transform="translate(98 90)" fill="#ffffff" opacity="0.65"/>
    <text x="148" y="110" fill="#0f172a" font-size="39" font-weight="800">GPT Docs API</text>
    <rect x="910" y="78" width="196" height="36" rx="18" fill="#e9defc" stroke="#c3a4f7"/>
    <circle cx="934" cy="96" r="6" fill="#7c3aed"/>
    <text x="950" y="101" fill="#272243" font-size="15" font-weight="700">AI workflow</text>
    <text x="86" y="166" fill="#475569" font-size="20" font-weight="500">A static web project. Q&amp;A Type Interface to ask questions against the</text>
<text x="86" y="193" fill="#475569" font-size="20" font-weight="500">Twilio</text>
  </g>

  <g transform="translate(84 222)">
    <rect x="0" y="0" width="622" height="328" rx="28" fill="url(#p19pek9x-stage)"/>
    <rect x="1" y="1" width="620" height="326" rx="27" fill="none" stroke="#ffffff" stroke-opacity="0.12"/>
    <path d="M34 270 C116 228 166 286 250 236 C338 184 430 214 588 96" fill="none" stroke="#ffffff" stroke-opacity="0.12" stroke-width="2"/>
    <circle cx="76" cy="66" r="58" fill="#7c3aed" opacity="0.20"/>
    <circle cx="548" cy="74" r="78" fill="#06b6d4" opacity="0.16"/>
    <g class="body">
    <rect x="64" y="54" width="178" height="222" rx="26" fill="#ffffff" opacity="0.94" filter="url(#p19pek9x-miniShadow)"/>
    <text x="92" y="94" fill="#0f172a" font-size="19" font-weight="800">Input</text>
    <rect x="92" y="116" width="108" height="16" rx="8" fill="#dac8fa"/>
    <rect x="92" y="148" width="124" height="16" rx="8" fill="#e2e8f0"/>
    <rect x="92" y="180" width="88" height="16" rx="8" fill="#e2e8f0"/>
    <rect x="92" y="226" width="76" height="26" rx="13" fill="#7c3aed"/>
    <text x="130" y="244" fill="#ffffff" font-size="12" font-weight="800" text-anchor="middle">request</text>

    <circle cx="324" cy="165" r="84" fill="url(#p19pek9x-accent)" filter="url(#p19pek9x-miniShadow)"/>
    <circle cx="324" cy="165" r="62" fill="#ffffff" opacity="0.14"/>
    <path d="M22 2l5 14 14 5-14 5-5 14-5-14-14-5 14-5z" transform="translate(292 133)" fill="#ffffff"/><path d="M38 4l2 6 6 2-6 2-2 6-2-6-6-2 6-2z" transform="translate(292 133)" fill="#ffffff" opacity="0.65"/>
    <text x="324" y="248" fill="#ffffff" font-size="15" font-weight="800" text-anchor="middle">model adapter</text>

    <rect x="432" y="54" width="132" height="92" rx="24" fill="#ffffff" opacity="0.94"/>
    <rect x="432" y="184" width="132" height="92" rx="24" fill="#ffffff" opacity="0.94"/>
    <text x="498" y="92" fill="#0f172a" font-size="16" font-weight="800" text-anchor="middle">docs</text>
    <text x="498" y="222" fill="#0f172a" font-size="16" font-weight="800" text-anchor="middle">response</text>
    <path d="M242 164h68 M386 164h44 M498 146v38" stroke="#ffffff" stroke-width="5" stroke-linecap="round" opacity="0.78"/>
    <path d="M294 151l20 13-20 13 M414 151l20 13-20 13" fill="#ffffff" opacity="0.78"/>
    <path d="M486 171l12 16 12-16" fill="#f97316"/>
    <path d="M10 4h17l9 9v25H10z M27 4v11h9 M16 23h14 M16 31h10" transform="translate(482 104)" stroke="#06b6d4" stroke-width="4" stroke-linecap="round" stroke-linejoin="round" fill="none"/>
    <path d="M6 10h32v21H18L8 38v-7H6z" transform="translate(482 232)" stroke="#f97316" stroke-width="4" stroke-linecap="round" stroke-linejoin="round" fill="none"/><path d="M14 19h16 M14 26h10" transform="translate(482 232)" stroke="#f97316" stroke-width="4" stroke-linecap="round" stroke-linejoin="round" fill="none"/>
  </g>
  </g>

  <g class="body" transform="translate(742 222)">
    <rect x="0" y="0" width="364" height="302" rx="26" fill="#f8fafc" stroke="#e2e8f0"/>
    <rect x="22" y="22" width="320" height="52" rx="18" fill="#ffffff" stroke="#e5e7eb"/>
    <text x="44" y="55" fill="#0f172a" font-size="20" font-weight="800">Project system map</text>
    <g transform="translate(24 94)">
      <circle cx="10" cy="15" r="6" fill="#7c3aed"/>
      <text x="28" y="11" fill="#64748b" font-size="12" font-weight="800">STACK</text>
      <text x="28" y="34" fill="#1f2937" font-size="15" font-weight="650">Python, JavaScript</text>
    </g>
<g transform="translate(24 145)">
      <circle cx="10" cy="15" r="6" fill="#06b6d4"/>
      <text x="28" y="11" fill="#64748b" font-size="12" font-weight="800">SURFACE</text>
      <text x="28" y="34" fill="#1f2937" font-size="15" font-weight="650">Docs: README and project notes</text>
    </g>
<g transform="translate(24 196)">
      <circle cx="10" cy="15" r="6" fill="#f97316"/>
      <text x="28" y="11" fill="#64748b" font-size="12" font-weight="800">VERIFY</text>
      <text x="28" y="34" fill="#1f2937" font-size="15" font-weight="650">make lint</text>
    </g>
<g transform="translate(24 247)">
      <circle cx="10" cy="15" r="6" fill="#7c3aed"/>
      <text x="28" y="11" fill="#64748b" font-size="12" font-weight="800">FOCUS</text>
      <text x="28" y="34" fill="#1f2937" font-size="15" font-weight="650">repeatable checks + credential hygiene</text>
    </g>
  </g>
  <g class="body">
    <rect x="84" y="574" width="137.2" height="30" rx="15" fill="#eadffc" stroke="#c8acf7"/>
    <text x="100" y="594" fill="#532da3" font-size="13" font-weight="800">AI workflow</text>
<rect x="231.2" y="574" width="101.2" height="30" rx="15" fill="#d7f3f8" stroke="#96e0ed"/>
    <text x="247.2" y="594" fill="#097a93" font-size="13" font-weight="800">Python</text>
<rect x="342.4" y="574" width="130" height="30" rx="15" fill="#fee9da" stroke="#fcc49d"/>
    <text x="358.4" y="594" fill="#a0501e" font-size="13" font-weight="800">JavaScript</text>
<rect x="482.4" y="574" width="92" height="30" rx="15" fill="#eadffc" stroke="#c8acf7"/>
    <text x="498.4" y="594" fill="#532da3" font-size="13" font-weight="800">Docs</text>
<rect x="584.4" y="574" width="180.4" height="30" rx="15" fill="#d7f3f8" stroke="#96e0ed"/>
    <text x="600.4" y="594" fill="#097a93" font-size="13" font-weight="800">repeatable checks</text>
  </g>

  <g class="body">
    <text x="84" y="613" fill="#64748b" font-size="15" font-weight="600">garethpaul/gpt-docs-api</text>
    <text x="1008" y="613" fill="#94a3b8" font-size="14" text-anchor="end">Source-aware README artwork</text>
    <circle cx="1028" cy="609" r="4" fill="#7c3aed"/>
    <circle cx="1044" cy="609" r="4" fill="#06b6d4"/>
    <circle cx="1060" cy="609" r="4" fill="#f97316"/>
  </g>
</svg>
